# xmcd
# 
# Track frame offsets:
#     182
#     33182
#     69222
#     94267
#     115695
#     125090
#     157860
#     184677
#     203827
#     236040
#     269820
#     321357
# 
# Disc length: 4624
# 
# Revision: 18
# Processed by: cddbd v1.5.2PL0 Copyright (c) Steve Scherf et al.
# Submitted via: fre:ac v1.0.31
# 
DISCID=a6120e0c
DTITLE=Aphex Twin - Selected Ambient Works Volume II Disc 2
DYEAR=1994
DGENRE=Ambient
TTITLE0=Blue Calx
TTITLE1=Parallel Stripes
TTITLE2=Shiny Metal Rods
TTITLE3=Grey Stripe
TTITLE4=Z Twig
TTITLE5=Windowsill
TTITLE6=Hexagon
TTITLE7=Lichen
TTITLE8=Spots
TTITLE9=Tassels
TTITLE10=White Blur 2
TTITLE11=Matchsticks
EXTD=YEAR: 1994 ID3G: 26
EXTT0=
EXTT1=
EXTT2=
EXTT3=
EXTT4=
EXTT5=
EXTT6=
EXTT7=
EXTT8=
EXTT9=
EXTT10=
EXTT11=
PLAYORDER=
